<svg width="198" height="131" viewBox="0 0 198 131" fill="none" xmlns="http://www.w3.org/2000/svg">
<path d="M0 88.3931H8.15299V105.484H8.45054L22.9712 88.3931H32.4929L17.1391 106.327L32.7905 130.519H23.5068L12.0212 112.044L8.15299 116.376V130.519H0V88.3931Z" fill="black"/>
<path d="M39.8318 98.7439H48.0443V130.519H39.8318V98.7439ZM43.8786 93.2676C42.5693 93.2676 41.4783 92.8263 40.6055 91.9437C39.7326 91.0209 39.2962 89.9176 39.2962 88.6338C39.2962 87.3099 39.7326 86.2066 40.6055 85.3239C41.4783 84.4413 42.5693 84 43.8786 84C45.1878 84 46.2788 84.4614 47.1516 85.3841C48.0245 86.2668 48.4609 87.35 48.4609 88.6338C48.4609 89.9176 48.0245 91.0209 47.1516 91.9437C46.2788 92.8263 45.1878 93.2676 43.8786 93.2676Z" fill="black"/>
<path d="M67.5746 105.243V119.385C67.5746 120.79 67.6341 121.833 67.7531 122.515C67.9118 123.197 68.3085 123.738 68.9433 124.14C69.5781 124.541 70.6096 124.741 72.0379 124.741C72.871 124.741 73.724 124.661 74.5968 124.501V130.278C74.1604 130.358 73.367 130.458 72.2164 130.579C71.1055 130.699 70.0145 130.759 68.9433 130.759C66.0471 130.759 63.8849 130.338 62.4566 129.496C61.068 128.613 60.1952 127.53 59.8382 126.246C59.4811 124.922 59.3026 123.237 59.3026 121.191V105.243H54.0656V98.7439H59.3621V88.3931H67.5746V98.7439H74.5968V105.243H67.5746Z" fill="black"/>
<path d="M91.968 131C88.0799 131 85.0449 129.496 82.8628 126.487C80.6807 123.478 79.5897 119.506 79.5897 114.571C79.5897 109.556 80.6807 105.544 82.8628 102.535C85.0845 99.4861 88.1791 97.9616 92.1465 97.9616C94.8046 97.9616 96.8875 98.5834 98.3951 99.8271C99.9027 101.031 100.974 102.315 101.609 103.679H102.085V98.7439H110.357V130.519H102.085V125.042H101.609C100.895 126.527 99.7837 127.891 98.2761 129.134C96.7685 130.378 94.6658 131 91.968 131ZM95.003 124.26C97.3438 124.26 99.1093 123.297 100.299 121.371C101.49 119.446 102.085 117.139 102.085 114.451C102.085 111.763 101.49 109.476 100.299 107.59C99.1489 105.705 97.3834 104.762 95.003 104.762C92.6226 104.762 90.8571 105.705 89.7066 107.59C88.556 109.476 87.9807 111.763 87.9807 114.451C87.9807 117.179 88.556 119.506 89.7066 121.431C90.8571 123.317 92.6226 124.26 95.003 124.26Z" fill="black"/>
<path d="M114.319 98.7439H122.115L129.614 122.093H129.971L137.35 98.7439H145.146L134.672 130.519H124.734L114.319 98.7439Z" fill="black"/>
<path d="M162.938 131C159.645 131 156.868 130.238 154.606 128.713C152.345 127.149 150.659 125.122 149.548 122.635C148.477 120.108 147.941 117.399 147.941 114.511C147.941 111.622 148.477 108.934 149.548 106.447C150.659 103.919 152.345 101.873 154.606 100.309C156.868 98.7439 159.665 97.9616 162.997 97.9616C167.401 97.9616 170.893 99.3858 173.471 102.234C176.09 105.083 177.399 109.195 177.399 114.571V116.858H155.856V117.339C155.856 119.265 156.511 120.93 157.82 122.334C159.129 123.698 160.776 124.38 162.759 124.38C164.307 124.38 165.616 124.019 166.687 123.297C167.758 122.575 168.532 121.592 169.008 120.348H177.101C176.268 123.478 174.642 126.045 172.222 128.051C169.801 130.017 166.707 131 162.938 131ZM169.484 111.442C169.405 108.914 168.77 107.049 167.58 105.845C166.39 104.641 164.822 104.04 162.878 104.04C160.815 104.04 159.189 104.702 157.998 106.026C156.808 107.35 156.173 109.155 156.094 111.442H169.484Z" fill="black"/>
<path d="M193.239 130.759C190.303 130.759 188.121 130.318 186.693 129.435C185.304 128.513 184.432 127.389 184.074 126.065C183.757 124.701 183.598 122.976 183.598 120.89V85.3841H191.811V119.205C191.811 120.649 191.87 121.732 191.989 122.455C192.148 123.137 192.545 123.698 193.18 124.14C193.854 124.541 194.905 124.741 196.334 124.741C196.81 124.741 197.365 124.701 198 124.621V130.398C195.977 130.639 194.39 130.759 193.239 130.759Z" fill="black"/>
<path d="M100 74C120.435 74 137 57.4345 137 37C137 16.5655 120.435 0 100 0C79.5655 0 63 16.5655 63 37C63 40.5798 63.5084 44.0408 64.4569 47.3149C67.5866 58.1181 81.2122 57.9335 89.1653 49.9803C90.0273 49.1184 90.0273 47.721 89.1653 46.8591L73.2898 30.9835C72.4796 30.1733 72.4441 28.8711 73.2089 28.0179L74.8751 26.1592C75.484 25.4799 76.4545 25.257 77.2988 25.6026L98.4614 34.2645C101.221 35.394 104.389 34.757 106.497 32.6486L116.124 23.0219C118.83 20.316 123.217 20.316 125.923 23.0219C128.628 25.7277 128.628 30.1148 125.923 32.8206L96.4079 62.3352C92.0369 66.7063 93.8184 74 100 74Z" fill="black"/>
</svg>
