<svg width="154" height="28" viewBox="0 0 154 28" fill="none" xmlns="http://www.w3.org/2000/svg">
<path d="M34.1777 2.61716H39.0926V12.799H39.272L48.0256 2.61716H53.7656L44.5098 13.3009L53.945 27.7132H48.3485L41.4245 16.7068L39.0926 19.2881V27.7132H34.1777V2.61716Z" fill="white"/>
<path d="M58.1898 8.78361H63.1406V27.7132H58.1898V8.78361ZM60.6293 5.52113C59.84 5.52113 59.1823 5.25822 58.6562 4.7324C58.13 4.18267 57.8669 3.5254 57.8669 2.76056C57.8669 1.97183 58.13 1.31455 58.6562 0.788733C59.1823 0.262911 59.84 0 60.6293 0C61.4186 0 62.0763 0.274861 62.6024 0.824584C63.1286 1.35041 63.3917 1.99573 63.3917 2.76056C63.3917 3.5254 63.1286 4.18267 62.6024 4.7324C62.0763 5.25822 61.4186 5.52113 60.6293 5.52113Z" fill="white"/>
<path d="M74.9141 12.6556V21.0807C74.9141 21.9172 74.95 22.5386 75.0217 22.9449C75.1174 23.3513 75.3566 23.6739 75.7392 23.9129C76.1219 24.1519 76.7437 24.2714 77.6047 24.2714C78.107 24.2714 78.6212 24.2236 79.1474 24.128V27.5698C78.8843 27.6176 78.406 27.6773 77.7124 27.749C77.0427 27.8207 76.385 27.8566 75.7392 27.8566C73.9933 27.8566 72.6898 27.6056 71.8288 27.1037C70.9917 26.5779 70.4656 25.9326 70.2503 25.1677C70.0351 24.379 69.9274 23.3752 69.9274 22.1562V12.6556H66.7704V8.78361H69.9633V2.61716H74.9141V8.78361H79.1474V12.6556H74.9141Z" fill="white"/>
<path d="M89.6193 28C87.2755 28 85.4458 27.1037 84.1304 25.3111C82.815 23.5186 82.1573 21.1524 82.1573 18.2125C82.1573 15.2249 82.815 12.8348 84.1304 11.0423C85.4697 9.22578 87.3353 8.31754 89.7269 8.31754C91.3294 8.31754 92.585 8.68801 93.4939 9.42894C94.4027 10.146 95.0484 10.9108 95.4311 11.7234H95.7181V8.78361H100.705V27.7132H95.7181V24.4507H95.4311C95.0006 25.335 94.3309 26.1477 93.4221 26.8886C92.5133 27.6295 91.2457 28 89.6193 28ZM91.449 23.9846C92.8601 23.9846 93.9244 23.411 94.6419 22.2638C95.3594 21.1165 95.7181 19.7422 95.7181 18.1408C95.7181 16.5395 95.3594 15.1771 94.6419 14.0538C93.9483 12.9304 92.884 12.3688 91.449 12.3688C90.0139 12.3688 88.9496 12.9304 88.2561 14.0538C87.5625 15.1771 87.2157 16.5395 87.2157 18.1408C87.2157 19.7661 87.5625 21.1524 88.2561 22.2996C88.9496 23.423 90.0139 23.9846 91.449 23.9846Z" fill="white"/>
<path d="M103.094 8.78361H107.793L112.314 22.694H112.529L116.977 8.78361H121.677L115.363 27.7132H109.372L103.094 8.78361Z" fill="white"/>
<path d="M132.403 28C130.417 28 128.743 27.5459 127.38 26.6376C126.017 25.7055 125 24.4985 124.331 23.0166C123.685 21.5109 123.362 19.8976 123.362 18.1767C123.362 16.4558 123.685 14.8545 124.331 13.3726C125 11.8668 126.017 10.6479 127.38 9.71575C128.743 8.78361 130.429 8.31754 132.438 8.31754C135.093 8.31754 137.198 9.16603 138.752 10.863C140.331 12.56 141.12 15.0098 141.12 18.2125V19.5749H128.133V19.8617C128.133 21.009 128.528 22.0009 129.317 22.8374C130.107 23.65 131.099 24.0563 132.295 24.0563C133.228 24.0563 134.017 23.8412 134.663 23.411C135.308 22.9808 135.775 22.3952 136.062 21.6543H140.941C140.439 23.5186 139.458 25.0482 137.999 26.2433C136.54 27.4144 134.675 28 132.403 28ZM136.349 16.3483C136.301 14.8425 135.918 13.7311 135.201 13.0141C134.483 12.2971 133.539 11.9385 132.367 11.9385C131.123 11.9385 130.142 12.3329 129.425 13.1216C128.707 13.9104 128.325 14.9859 128.277 16.3483H136.349Z" fill="white"/>
<path d="M150.669 27.8566C148.899 27.8566 147.584 27.5937 146.723 27.0679C145.886 26.5181 145.36 25.8489 145.144 25.0602C144.953 24.2475 144.857 23.2198 144.857 21.977V0.824584H149.808V20.9731C149.808 21.8335 149.844 22.4789 149.916 22.9091C150.012 23.3154 150.251 23.65 150.633 23.9129C151.04 24.1519 151.674 24.2714 152.535 24.2714C152.822 24.2714 153.157 24.2475 153.539 24.1997V27.6415C152.319 27.7849 151.363 27.8566 150.669 27.8566Z" fill="white"/>
<path d="M13.1455 28.0001C20.4056 28.0001 26.2911 22.1146 26.2911 14.8545C26.2911 7.59444 20.4056 1.70898 13.1455 1.70898C5.88546 1.70898 0 7.59444 0 14.8545C0 16.1264 0.18062 17.356 0.517607 18.5192C1.62955 22.3575 6.47053 22.2919 9.29615 19.4662C9.60238 19.16 9.60237 18.6635 9.29615 18.3573L3.65581 12.717C3.36796 12.4291 3.35533 11.9665 3.62706 11.6633L4.21903 11.003C4.43539 10.7616 4.78016 10.6824 5.08014 10.8052L12.5989 13.8827C13.5793 14.2839 14.7048 14.0576 15.4539 13.3085L18.8741 9.88831C19.8354 8.92696 21.3941 8.92696 22.3554 9.88831C23.3168 10.8497 23.3168 12.4083 22.3554 13.3696L11.8693 23.8557C10.3164 25.4087 10.9493 28.0001 13.1455 28.0001Z" fill="white"/>
</svg>
